; NON-PLATED HOLES START AT T1
; THROUGH (PLATED) HOLES START AT T100
M48
INCH
T100C0.032000
T101C0.038000
%
T100
X001625Y003873
X002412Y003873
X010286Y003873
X011074Y003873
X007530Y003873
X011861Y003873
X012649Y003873
X003987Y003873
X006743Y003873
X005956Y003873
X003200Y003873
X008318Y003873
T101
X002593Y001904
X007593Y001904
X012593Y001904
X008593Y001904
X006593Y001904
X001593Y001904
X005593Y001904
X011593Y001904
X003593Y001904
X009593Y001904
X004593Y001904
X010593Y001904
T00
M30
